<svg width="16" height="16" viewBox="0 0 16 16" fill="none" xmlns="http://www.w3.org/2000/svg">
<path fill-rule="evenodd" clip-rule="evenodd" d="M16 8C16 10.1217 15.1571 12.1566 13.6569 13.6569C12.1566 15.1571 10.1217 16 8 16C5.87827 16 3.84344 15.1571 2.34315 13.6569C0.842855 12.1566 0 10.1217 0 8C0 5.87827 0.842855 3.84344 2.34315 2.34315C3.84344 0.842855 5.87827 0 8 0C10.1217 0 12.1566 0.842855 13.6569 2.34315C15.1571 3.84344 16 5.87827 16 8ZM8 3.71429C8.22733 3.71429 8.44535 3.80459 8.60609 3.96534C8.76684 4.12608 8.85714 4.3441 8.85714 4.57143V7.14286H11.4286C11.6559 7.14286 11.8739 7.23316 12.0347 7.39391C12.1954 7.55465 12.2857 7.77267 12.2857 8C12.2857 8.22733 12.1954 8.44535 12.0347 8.60609C11.8739 8.76684 11.6559 8.85714 11.4286 8.85714H8.85714V11.4286C8.85714 11.6559 8.76684 11.8739 8.60609 12.0347C8.44535 12.1954 8.22733 12.2857 8 12.2857C7.77267 12.2857 7.55465 12.1954 7.39391 12.0347C7.23316 11.8739 7.14286 11.6559 7.14286 11.4286V8.85714H4.57143C4.3441 8.85714 4.12608 8.76684 3.96534 8.60609C3.80459 8.44535 3.71429 8.22733 3.71429 8C3.71429 7.77267 3.80459 7.55465 3.96534 7.39391C4.12608 7.23316 4.3441 7.14286 4.57143 7.14286H7.14286V4.57143C7.14286 4.3441 7.23316 4.12608 7.39391 3.96534C7.55465 3.80459 7.77267 3.71429 8 3.71429Z" fill="white"/>
</svg>
